<?xml version="1.0" standalone="no"?>
<!DOCTYPE svg PUBLIC "-//W3C//DTD SVG 20010904//EN"
 "http://www.w3.org/TR/2001/REC-SVG-20010904/DTD/svg10.dtd">
<svg version="1.0" xmlns="http://www.w3.org/2000/svg"
 width="1920.000000pt" height="950.000000pt" viewBox="0 0 1920.000000 950.000000"
 preserveAspectRatio="xMidYMid meet">

<g transform="translate(0.000000,950.000000) scale(0.100000,-0.100000)"
fill="#000000" stroke="none">
<path d="M0 3855 l0 -3855 4848 0 4847 0 3855 3855 3855 3855 -2790 -2 c-1535
-1 -2770 -3 -2745 -5 1360 -102 2052 -652 2165 -1722 48 -447 -14 -889 -170
-1218 -89 -188 -180 -319 -329 -471 -335 -343 -794 -544 -1411 -617 -102 -12
-262 -18 -587 -22 l-448 -5 0 -904 0 -904 -1402 0 -1403 0 -134 423 c-74 232
-138 426 -142 431 -4 4 -47 -4 -96 -18 -283 -82 -551 -117 -893 -117 -321 0
-603 37 -860 113 -58 17 -114 31 -125 32 -17 1 -37 -53 -160 -429 l-142 -430
-862 -3 c-820 -2 -863 -1 -856 15 24 63 175 467 175 470 0 2 -37 -25 -83 -60
-363 -283 -777 -446 -1292 -509 -145 -17 -648 -17 -815 0 -564 60 -1109 223
-1602 480 -71 37 -128 71 -128 76 0 10 568 1136 579 1149 4 4 52 -18 107 -49
304 -173 592 -287 849 -339 190 -38 332 -48 593 -42 213 4 247 7 334 30 236
62 374 194 408 389 34 194 -83 335 -390 469 -52 23 -282 103 -510 179 -474
156 -639 220 -865 330 -484 236 -807 522 -964 853 -173 365 -194 858 -55 1258
181 520 616 912 1249 1125 l130 44 -867 0 -868 0 0 -3855z"/>
<path d="M3788 7665 c322 -82 610 -182 850 -296 119 -56 123 -59 111 -81 -16
-31 -617 -1077 -635 -1105 l-14 -22 -118 54 c-464 210 -770 290 -1212 314
-295 16 -502 -11 -664 -88 -150 -70 -237 -178 -237 -294 0 -146 145 -285 456
-437 188 -92 313 -139 702 -268 394 -131 566 -198 778 -302 426 -208 701 -450
865 -761 53 -101 116 -278 126 -353 4 -26 10 -43 14 -39 5 4 310 816 679 1803
370 987 683 1823 696 1858 l23 62 -1296 -1 -1297 0 173 -44z"/>
<path d="M7871 7683 c6 -16 145 -395 309 -843 685 -1872 1311 -3575 1316
-3579 2 -2 4 998 4 2222 l0 2227 -820 0 -820 0 11 -27z"/>
<path d="M11090 5716 l0 -756 270 0 c298 0 429 11 567 45 302 77 488 250 550
512 24 105 24 321 0 413 -72 272 -266 437 -603 511 -88 19 -137 22 -441 26
l-343 5 0 -756z"/>
<path d="M7008 5815 c-9 -27 -142 -449 -297 -936 -154 -487 -281 -890 -281
-895 0 -15 158 -62 290 -86 152 -27 437 -29 585 -4 132 22 296 66 301 81 4 10
-551 1815 -575 1870 -7 17 -11 12 -23 -30z"/>
</g>
</svg>
